# xmcd
#
# Track frame offsets: 
#        150
#        18749
#        35561
#        53732
#        82460
#        96668
#        112353
#        134070
#        145628
#        165056
#        181777
#        194869
#        205512
#        227649
#        243277
#        253900
#        271850
#        292627
#        305187
#        319291
#        334333
#
# Disc length: 4611 seconds
#
# Revision: 0
# Processed by: cddbd v1.5.2PL0 Copyright (c) Steve Scherf et al.
# Submitted via: ExactAudioCopyFreeDBPlugin 1.0
#
DISCID=44120115
DTITLE=Various Artist - Blues From Eugene
DYEAR=2013
DGENRE=Blues
TTITLE0=The Hank Shreve Band - Real Kinda Thing
TTITLE1=Joanne Broh - I Don't Play
TTITLE2=Peter Giri and Lloyd Tolbert - Rendezvous With the Blues
TTITLE3=Barbara Healy - Bumble Bee
TTITLE4=Peter Giri and The Brakemen - Long Train Rollin'
TTITLE5=Jerry Zybach and John Bryson - Don't Go
TTITLE6=Bop Shop - Walkin' Uptown
TTITLE7=The Miller Brothers - Night Time Is the Right Time
TTITLE8=Lynda Duffy and Paul Biondi - Louis Blues
TTITLE9=Steve Ibach - Tried to Keep Her
TTITLE10=Mark Slaymaker - Fahey
TTITLE11=Gerry Rempel Jazz Syndicate - Le Moulin Bleu
TTITLE12=Walker T Ryan - Black Cat At Midnight
TTITLE13=Dennis Smith - Movin' Along
TTITLE14=The Hank Shreve Band - Boogie Boss
TTITLE15=Henry Cooper - 390 Blues
TTITLE16=Jerry Zybach and Ken Emerson - Blues and Trouble
TTITLE17=Julia Timphony Band - Any Way You Want It
TTITLE18=Natty O and Hank Shreve - It's Alright
TTITLE19=Al Rivers - Hello Jesus
TTITLE20=Eagle Park Slim - Goin' Back to Eugene
EXTD=
EXTT0=
EXTT1=
EXTT2=
EXTT3=
EXTT4=
EXTT5=
EXTT6=
EXTT7=
EXTT8=
EXTT9=
EXTT10=
EXTT11=
EXTT12=
EXTT13=
EXTT14=
EXTT15=
EXTT16=
EXTT17=
EXTT18=
EXTT19=
EXTT20=
PLAYORDER=
